<svg xmlns="http://www.w3.org/2000/svg" width="370" height="90" viewBox="0 0 370 90" fill="none"><g clip-path="url(#clip0_2161_4126)"><path d="M0 77.9484V90.0001L46.8908 48.0995C72.1718 70.6906 51.2938 52.0322 93.7763 90.0001V77.9484C51.2938 39.9815 72.1718 58.6389 46.8908 36.0479L0 77.9484Z" fill="white"></path><path d="M82.8112 32.1026V21.4784C79.2523 18.297 76.3825 15.7319 74.0474 13.6443V24.2685C58.1533 10.0642 66.7248 17.7233 46.8908 0L0 41.9005V65.7917L46.8908 23.891C72.1718 46.4819 51.2938 27.825 93.7763 65.7917V41.9005C89.5182 38.0967 85.9067 34.8677 82.8112 32.1026Z" fill="white"></path><path d="M141.129 69.2312V19.9597H169.505C176.099 19.9597 181.094 21.0766 184.492 23.3105C187.941 25.4936 189.665 28.7682 189.665 33.1343C189.665 35.9267 188.98 38.1352 187.611 39.7597C186.242 41.3337 184.289 42.5013 181.753 43.2628C179.268 44.0243 176.327 44.5065 172.929 44.7097L173.233 44.1766C175.718 44.2275 178.051 44.4051 180.232 44.7097C182.464 45.0143 184.416 45.5727 186.09 46.3851C187.763 47.1975 189.082 48.3398 190.045 49.812C191.009 51.2337 191.491 53.1119 191.491 55.4474C191.491 58.4936 190.68 61.0319 189.056 63.0628C187.434 65.0428 185.177 66.5406 182.286 67.5559C179.395 68.5711 176.048 69.1298 172.244 69.2312H141.129ZM151.247 60.8543H171.179C174.374 60.8543 176.834 60.3465 178.558 59.3312C180.283 58.2651 181.145 56.5897 181.145 54.3051C181.145 52.6297 180.638 51.4112 179.623 50.6497C178.609 49.8882 177.265 49.4312 175.591 49.2789C173.918 49.0757 172.117 48.9743 170.19 48.9743H151.247V60.8543ZM151.247 40.8259H169.125C172.32 40.8259 174.78 40.3689 176.504 39.4551C178.229 38.4904 179.091 36.8659 179.091 34.5812C179.091 32.2966 178.229 30.6974 176.504 29.7836C174.78 28.8189 172.498 28.3366 169.657 28.3366H151.247V40.8259ZM199.196 31.3828H209.085V69.2312H199.196V31.3828ZM223.616 39.5312C220.775 39.5312 218.316 40.0896 216.236 41.2066C214.157 42.2728 212.483 43.5927 211.215 45.1666C209.947 46.7406 209.06 48.2637 208.553 49.7359L208.477 45.5474C208.527 44.9382 208.73 44.0496 209.085 42.882C209.44 41.6636 209.973 40.3689 210.683 38.9982C211.393 37.5765 212.331 36.2314 213.498 34.962C214.664 33.642 216.084 32.5759 217.758 31.7636C219.431 30.9512 221.384 30.5451 223.616 30.5451V39.5312ZM241.064 14.7812V23.4628H229.577V14.7812H241.064ZM230.338 31.3828H240.227V69.2312H230.338V31.3828ZM250.77 16.152H260.66V69.2312H250.77V16.152ZM292.535 31.3828L270.017 51.2589L270.245 45.1666L294.285 69.2312H281.733L260.888 47.9843L279.07 31.3828H292.535ZM300.25 16.152H310.14V69.2312H300.25V16.152ZM316.719 31.3828H327.217L343.573 67.7082L335.053 69.2312L316.719 31.3828ZM362.973 31.3828L336.803 84.462H326.533L337.716 63.5959L352.399 31.3828H362.973Z" fill="white"></path></g><defs><clipPath id="clip0_2161_4126"><rect width="370" height="90" fill="white"></rect></clipPath></defs></svg>