<svg xmlns="http://www.w3.org/2000/svg" width="107" height="26" viewBox="0 0 107 26" fill="none"><path d="M0 22.5184V26L13.5603 13.8954C20.8713 20.4217 14.8336 15.0315 27.1191 26V22.5184C14.8336 11.5502 20.8713 16.9401 13.5603 10.4138L0 22.5184Z" fill="white"></path><path d="M23.9481 9.27409V6.20488C22.9189 5.28581 22.089 4.54478 21.4137 3.9417V7.01091C16.8173 2.90743 19.2961 5.12005 13.5603 0L0 12.1046V19.0065L13.5603 6.90185C20.8713 13.4281 14.8336 8.03832 27.1191 19.0065V12.1046C25.8877 11.0057 24.8433 10.0729 23.9481 9.27409Z" fill="white"></path><path d="M40.8131 20V5.766H49.0191C50.9258 5.766 52.3705 6.08867 53.3531 6.734C54.3505 7.36467 54.8491 8.31067 54.8491 9.572C54.8491 10.3787 54.6511 11.0167 54.2551 11.486C53.8591 11.9407 53.2945 12.278 52.5611 12.498C51.8425 12.718 50.9918 12.8573 50.0091 12.916L50.0971 12.762C50.8158 12.7767 51.4905 12.828 52.1211 12.916C52.7665 13.004 53.3311 13.1653 53.8151 13.4C54.2991 13.6347 54.6805 13.9647 54.9591 14.39C55.2378 14.8007 55.3771 15.3433 55.3771 16.018C55.3771 16.898 55.1425 17.6313 54.6731 18.218C54.2038 18.79 53.5511 19.2227 52.7151 19.516C51.8791 19.8093 50.9111 19.9707 49.8111 20H40.8131ZM43.7391 17.58H49.5031C50.4271 17.58 51.1385 17.4333 51.6371 17.14C52.1358 16.832 52.3851 16.348 52.3851 15.688C52.3851 15.204 52.2385 14.852 51.9451 14.632C51.6518 14.412 51.2631 14.28 50.7791 14.236C50.2951 14.1773 49.7745 14.148 49.2171 14.148H43.7391V17.58ZM43.7391 11.794H48.9091C49.8331 11.794 50.5445 11.662 51.0431 11.398C51.5418 11.1193 51.7911 10.65 51.7911 9.99C51.7911 9.33 51.5418 8.868 51.0431 8.604C50.5445 8.32533 49.8845 8.186 49.0631 8.186H43.7391V11.794ZM57.6052 9.066H60.4652V20H57.6052V9.066ZM64.6672 11.42C63.8458 11.42 63.1345 11.5813 62.5332 11.904C61.9318 12.212 61.4478 12.5933 61.0812 13.048C60.7145 13.5027 60.4578 13.9427 60.3112 14.368L60.2892 13.158C60.3038 12.982 60.3625 12.7253 60.4652 12.388C60.5678 12.036 60.7218 11.662 60.9272 11.266C61.1325 10.8553 61.4038 10.4667 61.7412 10.1C62.0785 9.71867 62.4892 9.41067 62.9732 9.176C63.4572 8.94133 64.0218 8.824 64.6672 8.824V11.42ZM69.7132 4.27V6.778H66.3912V4.27H69.7132ZM66.6112 9.066H69.4712V20H66.6112V9.066ZM72.52 4.666H75.38V20H72.52V4.666ZM84.598 9.066L78.086 14.808L78.152 13.048L85.104 20H81.474L75.446 13.862L80.704 9.066H84.598ZM86.8291 4.666H89.6891V20H86.8291V4.666ZM91.5917 9.066H94.6277L99.3577 19.56L96.8937 20L91.5917 9.066ZM104.968 9.066L97.3997 24.4H94.4297L97.6637 18.372L101.91 9.066H104.968Z" fill="white"></path></svg>