<?xml version="1.0" encoding="UTF-8"?>
<svg version="1.1" xmlns="http://www.w3.org/2000/svg" width="1024" height="1024">
<path d="M0 0 C337.92 0 675.84 0 1024 0 C1024 337.92 1024 675.84 1024 1024 C686.08 1024 348.16 1024 0 1024 C0 686.08 0 348.16 0 0 Z " fill="#060605" transform="translate(0,0)"/>
<path d="M0 0 C5.24676059 1.5498915 8.72186369 4.91245066 12.7277832 8.46679688 C13.48907091 9.13579576 14.25035862 9.80479465 15.03471565 10.49406624 C24.98251459 19.29283172 34.69805506 28.33938124 44.3125 37.5 C45.2319767 38.37399696 46.1514534 39.24799393 47.09879303 40.14847565 C87.15028672 78.42748182 87.15028672 78.42748182 88.44715881 102.22137451 C88.71697562 114.33317153 86.52921542 126.45579605 83 138 C77.85750993 133.69682388 73.0478993 129.1865617 68.32055664 124.43408203 C67.58801666 123.70168808 66.85547668 122.96929413 66.10073853 122.21470642 C63.70149725 119.81477343 61.30580871 117.41132745 58.91015625 115.0078125 C57.23886127 113.3346507 55.56734408 111.66171085 53.89561462 109.98898315 C49.51225649 105.60182061 45.13191075 101.21166243 40.75219727 96.82086182 C36.27607582 92.3344815 31.79709574 87.85095708 27.31835938 83.3671875 C18.54278157 74.58090901 9.77038529 65.7914614 1 57 C-4.78906015 61.80719924 -10.10497085 66.97516879 -15.40771484 72.31005859 C-16.81400301 73.71858801 -18.2202913 75.12711731 -19.62658429 76.53564191 C-21.1246666 78.03707708 -22.62149472 79.53975221 -24.11796188 81.04279709 C-27.24128327 84.17971011 -30.36847773 87.31274303 -33.49624634 90.44522095 C-40.1254764 97.08551141 -46.75044009 103.73005094 -53.375 110.375 C-60.5483898 117.57041804 -67.72251943 124.76508956 -74.90150607 131.95492423 C-78.01364008 135.0720512 -81.1233178 138.19160223 -84.23115993 141.31300807 C-85.69451327 142.78200565 -87.15899047 144.2498713 -88.62399292 145.71722412 C-90.41389374 147.51001069 -92.20197715 149.30461412 -93.98797607 151.10128784 C-94.7701651 151.88354736 -95.55235413 152.66580688 -96.35824585 153.47177124 C-97.04142065 154.15716665 -97.72459545 154.84256207 -98.42847252 155.54872704 C-100 157 -100 157 -101 157 C-104.46302789 135.37209985 -108.45852232 109.11154467 -95.19664383 90.12186241 C-85.46311619 77.72333127 -73.72278647 67.08643978 -61.9194572 56.7008568 C-56.49829438 51.91863074 -51.256506 46.95500985 -46.01578164 41.97688377 C-37.88268502 34.26075204 -29.66761144 26.6414351 -21.30517578 19.17358398 C-20.48950134 18.44026855 -19.6738269 17.70695312 -18.83343506 16.95141602 C-18.09024017 16.29334457 -17.34704529 15.63527313 -16.58132935 14.95726013 C-15.61068133 14.09489573 -15.61068133 14.09489573 -14.62042427 13.21510983 C-13 12 -13 12 -11 12 C-11 11.34 -11 10.68 -11 10 C-9.35648543 8.63823078 -7.68477344 7.31037934 -6 6 C-4.3142876 4.35259924 -2.6436814 2.68933922 -1 1 C-0.67 0.67 -0.34 0.34 0 0 Z " fill="#FEFEFE" transform="translate(215,393)"/>
<path d="M0 0 C2.88619923 1.32471158 5.11483677 2.79710919 7.48016357 4.90992737 C8.1503804 5.50658203 8.82059723 6.10323669 9.51112366 6.7179718 C10.59761452 7.69977669 10.59761452 7.69977669 11.70605469 8.70141602 C12.47717087 9.3935318 13.24828705 10.08564758 14.04277039 10.79873657 C21.20777566 17.26507535 28.23876145 23.87249952 35.22948837 30.52642918 C39.91345749 34.97912731 44.63008185 39.37466231 49.46728516 43.66088867 C83.73109493 74.11332334 83.73109493 74.11332334 85.45117188 94.58544922 C86.04751113 106.47555815 84.90995045 118.27223982 83 130 C79.95390704 130.52677378 77.8371501 130.57503562 75.23237991 128.78582764 C73.19145961 126.93142533 71.26197788 125.00322583 69.34228516 123.0234375 C68.60013763 122.28216614 67.85799011 121.54089478 67.09335327 120.77716064 C64.64410001 118.32372766 62.21678068 115.84972906 59.7890625 113.375 C58.09501049 111.66975745 56.39962879 109.96583491 54.70297241 108.26318359 C50.24102925 103.77833193 45.79739614 99.27575468 41.3572998 94.76928711 C36.82331085 90.17392128 32.27228856 85.59549433 27.72265625 81.015625 C18.79832568 72.0269458 9.89264997 63.02001686 1 54 C-3.9452387 58.11226749 -8.44106395 62.40586631 -12.82373047 67.10693359 C-14.15663932 68.52270475 -15.49023841 69.93782632 -16.82443237 71.35238647 C-17.52246853 72.09347027 -18.22050468 72.83455406 -18.93969345 73.59809494 C-23.47690045 78.39127928 -28.07132861 83.12974503 -32.66021538 87.87338829 C-36.67119083 92.02577622 -40.65619401 96.19791707 -44.59130859 100.42236328 C-48.42115872 104.53143343 -52.31128347 108.5740892 -56.2478981 112.58089066 C-57.72398452 114.10515906 -59.17798789 115.65118217 -60.60699081 117.21967697 C-67.13533596 124.36082724 -72.63742862 130.06507528 -82.65631104 130.92657471 C-88.81178001 131.09014856 -94.88817558 130.72614162 -101 130 C-102.88742422 117.79848833 -104.5054758 105.01910367 -97.0793457 94.4871521 C-92.03660064 88.42601757 -86.38506932 83.01459361 -80.60516167 77.66473746 C-77.72176164 74.96530242 -74.92272026 72.18082054 -72.11291504 69.40522766 C-66.80374776 64.18544726 -61.42532657 59.04387662 -56.0163579 53.92780572 C-49.85227409 48.0903035 -43.77244049 42.16807338 -37.6974802 36.23809564 C-25.22161019 24.0636318 -12.64652195 11.99705169 0 0 Z " fill="#FEFEFE" transform="translate(215,480)"/>
<path d="M0 0 C3.29686941 2.38839873 6.30906705 4.93857629 9 8 C9 8.66 9 9.32 9 10 C9.76183594 9.31164062 9.76183594 9.31164062 10.5390625 8.609375 C20.41859949 -0.19710366 27.65524046 -2.91423902 40.93701172 -2.21777344 C47.56618199 -1.5179841 52.36313732 2.01449936 56.875 6.6875 C63.86841377 15.77429056 64.56840403 24.56560812 64.390625 35.7578125 C64.38314715 37.15598738 64.37746154 38.55417287 64.37347412 39.95236206 C64.35833872 43.5988963 64.31916535 47.24477405 64.2746582 50.89105225 C64.23344093 54.62519454 64.21540717 58.35944488 64.1953125 62.09375 C64.15265572 69.3961646 64.08240926 76.69790598 64 84 C56.74 84 49.48 84 42 84 C41.98541748 82.40607422 41.97083496 80.81214844 41.95581055 79.16992188 C41.89767986 73.23577856 41.82044702 67.30200881 41.73754883 61.36816406 C41.70436906 58.80377278 41.67631568 56.23930969 41.65356445 53.67480469 C41.6198915 49.98080958 41.56756693 46.2874684 41.51171875 42.59375 C41.50532883 41.4538562 41.4989389 40.3139624 41.49235535 39.13952637 C41.30402864 28.6617807 41.30402864 28.6617807 35.9375 20 C30.98525659 18.3141299 25.8170954 17.90102322 20.8671875 19.83203125 C18.26556152 21.28524074 16.10617229 22.89382771 14 25 C13.66802252 27.58828428 13.66802252 27.58828428 13.68115234 30.64306641 C13.66128265 31.82413971 13.64141296 33.00521301 13.62094116 34.22207642 C13.60938995 35.50230682 13.59783875 36.78253723 13.5859375 38.1015625 C13.56657135 39.40829926 13.5472052 40.71503601 13.5272522 42.06137085 C13.4758583 45.53667109 13.43627178 49.01201012 13.39910889 52.48748779 C13.35911447 56.03342341 13.30800141 59.57919662 13.2578125 63.125 C13.16096744 70.08322144 13.07761774 77.0415378 13 84 C6.07 84 -0.86 84 -8 84 C-8.01458252 82.43636719 -8.02916504 80.87273437 -8.04418945 79.26171875 C-8.10232781 73.4393877 -8.17956053 67.61743709 -8.26245117 61.79541016 C-8.29562736 59.27952262 -8.32368184 56.76356197 -8.34643555 54.24755859 C-8.38011518 50.62305656 -8.43243991 46.99922021 -8.48828125 43.375 C-8.49467117 42.25697998 -8.5010611 41.13895996 -8.50764465 39.98706055 C-8.64533622 32.61007135 -9.19811754 26.39622116 -14.0625 20.5 C-18.41957729 18.27510947 -22.20919429 18.14346201 -27 19 C-29.99775125 20.28335103 -32.60305579 21.77828931 -35 24 C-36.03266482 27.09799446 -36.15509525 29.32259273 -36.20532227 32.57299805 C-36.22526749 33.71395432 -36.24521271 34.85491058 -36.26576233 36.03044128 C-36.28247482 37.26176285 -36.29918732 38.49308441 -36.31640625 39.76171875 C-36.33718735 41.02264847 -36.35796844 42.28357819 -36.37937927 43.5827179 C-36.43372122 46.93145458 -36.48396166 50.28020205 -36.53222656 53.62902832 C-36.58250357 57.04766229 -36.63815724 60.46620826 -36.69335938 63.88476562 C-36.80053504 70.5897758 -36.90180812 77.29485248 -37 84 C-44.26 84 -51.52 84 -59 84 C-59 55.95 -59 27.9 -59 -1 C-52.07 -1 -45.14 -1 -38 -1 C-38 2.3 -38 5.6 -38 9 C-37.34 9 -36.68 9 -36 9 C-35.773125 8.4225 -35.54625 7.845 -35.3125 7.25 C-28.43334781 -4.54283233 -11.10952727 -5.20492445 0 0 Z " fill="#FEFEFE" transform="translate(875,478)"/>
<path d="M0 0 C0 7.26 0 14.52 0 22 C-3.3 21.01 -6.6 20.02 -10 19 C-20.72175448 15.83428148 -31.58138491 13.66100015 -42 19 C-44.7037946 21.24217113 -45.77249845 22.68288574 -46.37109375 26.1484375 C-46.58513622 30.05309105 -46.48301428 32.1965703 -44.421875 35.625 C-41.47093672 38.51882335 -38.63986198 39.465992 -34.75 40.5 C-33.70295898 40.80562866 -33.70295898 40.80562866 -32.63476562 41.11743164 C-30.42750306 41.76138123 -28.21498011 42.38316395 -26 43 C-14.15106451 46.30698804 -4.30547422 49.35488042 3 60 C7.47862389 68.5599505 7.55524774 79.95315158 4.75 89.0625 C1.35060738 97.42063965 -4.63398571 104.43811356 -12.85546875 108.36328125 C-28.66991331 114.23233962 -47.24603861 114.06209441 -63 108 C-65.64 106.68 -68.28 105.36 -71 104 C-71 96.41 -71 88.82 -71 81 C-69.06125 81.928125 -67.1225 82.85625 -65.125 83.8125 C-50.9176527 90.36023397 -38.03544533 93.1542468 -23 88 C-22.01 87.67 -21.02 87.34 -20 87 C-18.45687714 82.37063143 -18.51221629 77.83415494 -19 73 C-21.97365012 67.72852933 -29.53422811 65.97090484 -35.07763672 64.41796875 C-36.61049134 64.00770764 -38.14396048 63.59973694 -39.67797852 63.19384766 C-50.82540029 60.2423546 -60.45031851 57.23175632 -67 47 C-69.72811407 41.40661732 -70.52158791 36.30513034 -70.4375 30.125 C-70.42920166 29.33561035 -70.42090332 28.5462207 -70.41235352 27.73291016 C-70.1414347 18.35969746 -67.40878834 11.58317588 -60.90625 4.75 C-45.92538805 -9.00292244 -17.66295613 -8.83147806 0 0 Z " fill="#FDFDFD" transform="translate(413,452)"/>
<path d="M0 0 C5.16953139 4.42330197 7.92374126 9.11074784 9.8671875 15.59765625 C10.04176987 16.17449158 10.21635223 16.7513269 10.39622498 17.34564209 C10.97834626 20.1291871 10.98668944 22.71473443 10.98071289 25.55957031 C10.98059959 27.3609848 10.98059959 27.3609848 10.98048401 29.1987915 C10.97532272 30.49057312 10.97016144 31.78235474 10.96484375 33.11328125 C10.96297767 34.4527786 10.96155466 35.79227663 10.96055603 37.1317749 C10.95674585 40.64988097 10.94692841 44.16794546 10.93585205 47.68603516 C10.92560567 51.27896564 10.9210515 54.87190286 10.91601562 58.46484375 C10.90530475 65.50913317 10.88772012 72.55338762 10.8671875 79.59765625 C3.9371875 79.59765625 -2.9928125 79.59765625 -10.1328125 79.59765625 C-10.4628125 77.61765625 -10.7928125 75.63765625 -11.1328125 73.59765625 C-11.58269531 73.92378906 -12.03257812 74.24992188 -12.49609375 74.5859375 C-21.4582389 80.67444893 -31.36668286 82.84986652 -42.1328125 81.59765625 C-49.79545861 79.85714092 -54.89726832 76.20981133 -59.1328125 69.59765625 C-62.77558803 62.49424397 -63.34505366 54.60536676 -61.4765625 46.88671875 C-59.39735214 40.91795108 -56.62764859 36.81389976 -51.1328125 33.59765625 C-43.92623843 30.38209737 -37.08424045 28.4594438 -29.17578125 28.5 C-28.06396484 28.50322266 -26.95214844 28.50644531 -25.80664062 28.50976562 C-24.65615234 28.51814453 -23.50566406 28.52652344 -22.3203125 28.53515625 C-21.15048828 28.53966797 -19.98066406 28.54417969 -18.77539062 28.54882812 C-15.89447892 28.56058695 -13.01367206 28.57702199 -10.1328125 28.59765625 C-10.42138476 27.15743376 -10.71864392 25.71895011 -11.01953125 24.28125 C-11.266427 23.07940063 -11.266427 23.07940063 -11.51831055 21.85327148 C-12.38316618 18.6786981 -13.75261204 16.84184525 -16.1328125 14.59765625 C-24.19967395 10.59954453 -33.80305167 11.91259214 -42.1328125 14.47265625 C-44.13891002 15.16353167 -46.13928987 15.87129295 -48.1328125 16.59765625 C-50.1128125 17.25765625 -52.0928125 17.91765625 -54.1328125 18.59765625 C-54.1328125 12.32765625 -54.1328125 6.05765625 -54.1328125 -0.40234375 C-37.03290094 -8.04701009 -16.27370919 -12.13076857 0 0 Z " fill="#FDFDFD" transform="translate(489.1328125,482.40234375)"/>
<path d="M0 0 C8.09971854 6.65976858 13.05683832 13.99676543 14.15686035 24.64633179 C14.27244147 28.34791688 14.26296432 32.02759675 14.203125 35.73046875 C14.19564395 37.08237359 14.18995986 38.43428944 14.18597412 39.78620911 C14.1708638 43.30615362 14.13171364 46.82541432 14.0871582 50.34509277 C14.04588534 53.95197302 14.02789555 57.55896618 14.0078125 61.16601562 C13.96520052 68.2151466 13.89497543 75.26370607 13.8125 82.3125 C6.5525 82.3125 -0.7075 82.3125 -8.1875 82.3125 C-8.20208252 80.74886719 -8.21666504 79.18523437 -8.23168945 77.57421875 C-8.28982781 71.7518877 -8.36706053 65.92993709 -8.44995117 60.10791016 C-8.48312736 57.59202262 -8.51118184 55.07606197 -8.53393555 52.56005859 C-8.56761518 48.93555656 -8.61993991 45.31172021 -8.67578125 41.6875 C-8.68217117 40.56947998 -8.6885611 39.45145996 -8.69514465 38.29956055 C-8.82288489 31.45572552 -8.96549864 24.43381382 -14.1875 19.375 C-19.61165636 16.49341693 -25.62136536 16.42694979 -31.515625 17.890625 C-34.45954067 19.08999805 -36.60748823 20.26077153 -38.17366028 23.10069275 C-40.35207347 29.61290779 -40.65919783 35.73342597 -40.69921875 42.56640625 C-40.71716995 43.70786606 -40.73512115 44.84932587 -40.75361633 46.02537537 C-40.8074442 49.64188025 -40.84152723 53.25825524 -40.875 56.875 C-40.90819729 59.33921068 -40.94268916 61.80340427 -40.97851562 64.26757812 C-41.06315512 70.28245795 -41.13009762 76.29730108 -41.1875 82.3125 C-48.4475 82.3125 -55.7075 82.3125 -63.1875 82.3125 C-63.1875 54.2625 -63.1875 26.2125 -63.1875 -2.6875 C-56.2575 -2.6875 -49.3275 -2.6875 -42.1875 -2.6875 C-42.1875 0.9425 -42.1875 4.5725 -42.1875 8.3125 C-41.548125 7.61125 -40.90875 6.91 -40.25 6.1875 C-28.61038626 -5.35347294 -14.61613416 -7.73795338 0 0 Z " fill="#FEFEFE" transform="translate(578.1875,479.6875)"/>
<path d="M0 0 C22.44 0 44.88 0 68 0 C68 18.31958145 68 18.31958145 60.9140625 25.79296875 C57.93362471 29.03357184 55.24901567 32.45227743 52.5625 35.9375 C51.64477816 37.10798698 50.72549779 38.27725361 49.8046875 39.4453125 C49.34545898 40.02829102 48.88623047 40.61126953 48.41308594 41.21191406 C46.96991995 43.03806259 45.52068218 44.85925672 44.0703125 46.6796875 C43.58747803 47.28820557 43.10464355 47.89672363 42.60717773 48.52368164 C41.70074224 49.66580595 40.79166154 50.80583925 39.87915039 51.94311523 C36.27555277 56.49164702 33.25492989 61.11760517 30 66 C42.54 66.33 55.08 66.66 68 67 C68 72.94 68 78.88 68 85 C44.9 85 21.8 85 -2 85 C-2 66.55699409 -2 66.55699409 4.44482422 59.44995117 C4.9142041 59.00627197 5.38358398 58.56259277 5.8671875 58.10546875 C8.94980521 55.0921767 11.69549017 51.8844349 14.4375 48.5625 C15.34455136 47.48545832 16.25342666 46.40995022 17.1640625 45.3359375 C17.62329102 44.79420898 18.08251953 44.25248047 18.55566406 43.69433594 C20.07927716 41.90700076 21.61248433 40.12830196 23.1484375 38.3515625 C23.67638916 37.73982178 24.20434082 37.12808105 24.74829102 36.49780273 C25.7517246 35.33650103 26.75724068 34.1769936 27.76538086 33.01977539 C31.40879346 28.8011867 34.63236465 24.49018046 38 20 C25.46 19.67 12.92 19.34 0 19 C0 12.73 0 6.46 0 0 Z " fill="#FDFDFD" transform="translate(606,477)"/>
<path d="M0 0 C7.92 0 15.84 0 24 0 C28.44162783 10.22239813 32.06039229 20.63459851 35.625 31.1875 C36.20275506 32.88749556 36.78087794 34.58736617 37.359375 36.28710938 C39.93053304 43.85005495 42.47940813 51.42004403 45 59 C46.85833767 56.21249349 47.68725904 54.2122285 48.6640625 51.05712891 C48.97778809 50.05243561 49.29151367 49.04774231 49.61474609 48.01260376 C49.94812988 46.92821014 50.28151367 45.84381653 50.625 44.7265625 C51.14634521 43.05271988 51.14634521 43.05271988 51.67822266 41.34506226 C52.79004529 37.7731074 53.89537377 34.19918626 55 30.625 C56.10559156 27.05826549 57.21256874 23.49197242 58.32177734 19.92636108 C59.01193452 17.70672747 59.69984329 15.48639322 60.38525391 13.26528931 C60.69897949 12.25429169 61.01270508 11.24329407 61.3359375 10.20166016 C61.60970215 9.31580231 61.8834668 8.42994446 62.16552734 7.51724243 C63.00818311 4.97531511 64.00543108 2.48642231 65 0 C72.92 0 80.84 0 89 0 C85.62475801 12.37588731 85.62475801 12.37588731 84.04223633 16.68896484 C83.68789017 17.66143158 83.33354401 18.63389832 82.96846008 19.63583374 C82.59343857 20.65061798 82.21841705 21.66540222 81.83203125 22.7109375 C81.43352463 23.79976227 81.03501801 24.88858704 80.62443542 26.01040649 C79.78355282 28.3054005 78.940527 30.59961026 78.09545898 32.89306641 C76.82929719 36.32941264 75.56930114 39.7679656 74.31054688 43.20703125 C70.40645634 53.85713027 66.46456343 64.49286898 62.44921875 75.1015625 C62.11388626 75.99217377 61.77855377 76.88278503 61.43305969 77.80038452 C61.12603622 78.60698517 60.81901276 79.41358582 60.50268555 80.24462891 C60.23522018 80.94971588 59.96775482 81.65480286 59.69218445 82.3812561 C59 84 59 84 58 85 C56.07332493 85.08748207 54.14348139 85.10697334 52.21484375 85.09765625 C50.46010742 85.09282227 50.46010742 85.09282227 48.66992188 85.08789062 C47.43822266 85.07951172 46.20652344 85.07113281 44.9375 85.0625 C43.08415039 85.05573242 43.08415039 85.05573242 41.19335938 85.04882812 C38.12885883 85.03699608 35.06445279 85.02051173 32 85 C27.45887048 75.71767345 23.96447603 66.07787815 20.41088867 56.38720703 C18.6552608 51.59988332 16.8877836 46.81696159 15.1171875 42.03515625 C14.59200531 40.61675949 14.59200531 40.61675949 14.05621338 39.16970825 C10.55018901 29.73369469 6.87433274 20.36879772 3.09912109 11.03735352 C2.68484863 10.00408936 2.27057617 8.9708252 1.84375 7.90625 C1.48474609 7.02259766 1.12574219 6.13894531 0.75585938 5.22851562 C0 3 0 3 0 0 Z " fill="#FDFDFD" transform="translate(681,477)"/>
<path d="M0 0 C7.26 0 14.52 0 22 0 C22 28.05 22 56.1 22 85 C14.74 85 7.48 85 0 85 C0 56.95 0 28.9 0 0 Z " fill="#FEFEFE" transform="translate(779,477)"/>
<path d="M0 0 C5.47164948 4.35244845 5.47164948 4.35244845 6.75 8.1875 C7.13438818 12.87703585 7.20895659 15.25193464 5.125 19.5 C2.05770443 22.97088709 -0.57416375 24.75401453 -5.203125 25.50390625 C-10.31614929 25.80639433 -13.2889659 24.59583167 -17.25 21.1875 C-20.6148794 17.37397001 -20.82163923 13.53904397 -20.66796875 8.62890625 C-19.96636065 4.53072811 -18.34624514 2.9397179 -15.25 0.1875 C-10.1530557 -2.76336249 -5.13138298 -2.86173282 0 0 Z " fill="#FCFCFC" transform="translate(797.25,441.8125)"/>
<path d="M0 0 C1.39702148 0.00966797 1.39702148 0.00966797 2.82226562 0.01953125 C3.78197266 0.03628906 4.74167969 0.05304687 5.73046875 0.0703125 C6.70951172 0.07933594 7.68855469 0.08835937 8.69726562 0.09765625 C11.10441936 0.12114068 13.51106618 0.1539841 15.91796875 0.1953125 C17.13855574 12.57070837 17.13855574 12.57070837 14.2421875 16.42578125 C9.19410781 20.16339053 4.80790721 21.37161819 -1.45703125 21.5078125 C-2.57851563 21.54519531 -3.7 21.58257813 -4.85546875 21.62109375 C-8.73588711 21.10902886 -10.3176555 19.90440073 -13.08203125 17.1953125 C-14.68633389 13.98670721 -14.56308443 10.6762668 -14.08203125 7.1953125 C-10.7357581 1.49425454 -6.42184496 -0.07879564 0 0 Z " fill="#060605" transform="translate(463.08203125,525.8046875)"/>
</svg>
