<svg xmlns="http://www.w3.org/2000/svg" width="178" height="29" viewBox="0 0 178 29" fill="none"><g clip-path="url(#clip0_2068_2680)"><path d="M24.8367 1.195C25.4535 0.553346 26.2912 0.192871 27.1634 0.192871C31.0878 0.192871 34.7862 0.192873 38.4282 0.19288C45.7534 0.192896 49.4216 9.40636 44.2419 14.7948L32.9592 26.5322C32.4413 27.0711 31.5556 26.6894 31.5556 25.9274V15.5895L32.8595 14.233C33.8954 13.1554 33.1618 11.3126 31.6967 11.3126H15.1111L24.8367 1.195Z" fill="#063231" fill-opacity="0.24"></path><path d="M21.8299 25.7071C21.2132 26.3488 20.3755 26.7093 19.5033 26.7093C15.5789 26.7093 11.8805 26.7093 8.23847 26.7093C0.913218 26.7092 -2.75491 17.4958 2.4248 12.1073L13.7075 0.369922C14.2254 -0.168929 15.1111 0.212707 15.1111 0.974756L15.1111 11.3125L13.8072 12.6691C12.7713 13.7468 13.5049 15.5895 14.97 15.5895L31.5557 15.5894L21.8299 25.7071Z" fill="#063231" fill-opacity="0.24"></path><path d="M112.101 9.07764V22.4075H116.015V9.07764H112.101Z" fill="#063231" fill-opacity="0.24"></path><path d="M112.374 6.86047C112.836 7.32293 113.402 7.5542 114.071 7.5542C114.74 7.5542 115.302 7.32293 115.756 6.86047C116.218 6.39795 116.45 5.83634 116.45 5.17563C116.45 4.49839 116.218 3.93265 115.756 3.47842C115.302 3.01592 114.74 2.78467 114.071 2.78467C113.402 2.78467 112.836 3.01592 112.374 3.47842C111.911 3.93265 111.68 4.49839 111.68 5.17563C111.68 5.83634 111.911 6.39795 112.374 6.86047Z" fill="#063231" fill-opacity="0.24"></path><path fill-rule="evenodd" clip-rule="evenodd" d="M118.224 27.611V9.07798H121.94V10.4035H121.989C122.223 10.1728 122.475 9.96225 122.746 9.77171C123.621 9.16051 124.628 8.85498 125.768 8.85498C126.768 8.85498 127.722 9.11511 128.63 9.63545C129.547 10.1557 130.29 10.928 130.86 11.952C131.43 12.9762 131.706 14.2522 131.69 15.78C131.698 16.9363 131.537 17.9439 131.207 18.8028C130.876 19.6535 130.43 20.3596 129.869 20.9212C129.308 21.4828 128.68 21.904 127.986 22.1848C127.292 22.4656 126.59 22.606 125.88 22.606C124.756 22.606 123.749 22.2922 122.857 21.6646C122.632 21.5044 122.42 21.331 122.219 21.1442H122.138V27.611H118.224ZM124.963 19.3355C125.541 19.3272 126.049 19.1745 126.487 18.8772C126.924 18.5798 127.268 18.1586 127.515 17.6136C127.763 17.0684 127.883 16.4325 127.874 15.7057C127.883 14.9624 127.759 14.3265 127.503 13.7979C127.255 13.2611 126.904 12.8522 126.45 12.5714C125.996 12.2824 125.475 12.142 124.889 12.1502C124.336 12.142 123.84 12.2783 123.402 12.5591C122.964 12.8399 122.618 13.2487 122.362 13.7855C122.106 14.3141 121.978 14.9542 121.978 15.7057C121.978 16.4325 122.106 17.0684 122.362 17.6136C122.626 18.1586 122.981 18.5798 123.427 18.8772C123.873 19.1745 124.385 19.3272 124.963 19.3355Z" fill="#063231" fill-opacity="0.24"></path><path d="M135.46 22.1969C136.187 22.4695 136.947 22.6057 137.739 22.6057C138.648 22.6057 139.478 22.4282 140.229 22.0731C140.989 21.7179 141.596 21.2224 142.051 20.5865C142.513 19.9423 142.744 19.2031 142.744 18.3689C142.744 17.7082 142.604 17.1507 142.323 16.6965C142.051 16.2423 141.703 15.8706 141.283 15.5815C140.869 15.2925 140.444 15.0653 140.007 14.9002C139.569 14.7267 139.185 14.5946 138.854 14.5037C138.425 14.3799 138.012 14.2519 137.615 14.1197C137.219 13.9876 136.893 13.8307 136.637 13.6489C136.381 13.4673 136.253 13.2277 136.253 12.9304C136.253 12.6331 136.381 12.3853 136.637 12.1871C136.893 11.9889 137.215 11.8898 137.603 11.8898C138.065 11.8898 138.445 12.0137 138.743 12.2615C139.049 12.5092 139.279 12.7653 139.437 13.0295L142.447 11.7287C142.067 10.8698 141.423 10.1802 140.515 9.65986C139.614 9.13959 138.598 8.87939 137.467 8.87939C136.559 8.87939 135.749 9.04873 135.039 9.38733C134.337 9.72593 133.779 10.1967 133.366 10.7996C132.961 11.3943 132.759 12.0839 132.759 12.8685C132.759 13.6118 132.933 14.2436 133.279 14.7639C133.627 15.2842 134.077 15.7137 134.63 16.0523C135.191 16.3827 135.786 16.6428 136.414 16.8328C136.687 16.9071 136.984 16.9897 137.306 17.0805C137.636 17.1714 137.95 17.2787 138.247 17.4027C138.545 17.5265 138.788 17.6752 138.978 17.8486C139.168 18.0221 139.263 18.2285 139.263 18.4681C139.263 18.658 139.197 18.8355 139.065 19.0007C138.941 19.1659 138.767 19.3022 138.545 19.4095C138.321 19.5087 138.061 19.5582 137.764 19.5582C137.203 19.5582 136.715 19.3848 136.302 19.0379C135.889 18.691 135.58 18.3235 135.373 17.9353L132.301 19.2857C132.581 19.9547 132.999 20.541 133.552 21.0448C134.105 21.5403 134.741 21.9244 135.46 22.1969Z" fill="#063231" fill-opacity="0.24"></path><path d="M158.658 22.4075V9.07766H162.387V10.7749H162.455C162.747 10.3693 163.075 10.0266 163.44 9.74659C164.183 9.16846 165.063 8.87939 166.079 8.87939C166.921 8.87939 167.635 9.08586 168.222 9.49886C168.674 9.80666 169.043 10.2196 169.328 10.7377H169.398C169.82 10.1997 170.333 9.77839 170.935 9.47406C171.719 9.07766 172.574 8.87939 173.499 8.87939C174.383 8.87939 175.11 9.03633 175.679 9.35019C176.249 9.65573 176.695 10.0605 177.017 10.5643C177.339 11.0598 177.567 11.6049 177.699 12.1995C177.831 12.7859 177.897 13.3557 177.897 13.9091V22.4075H173.957V14.3923C173.957 13.6655 173.805 13.108 173.499 12.7198C173.202 12.3234 172.764 12.1252 172.186 12.1252C171.806 12.1252 171.467 12.2119 171.17 12.3853C170.881 12.5505 170.65 12.8024 170.477 13.141C170.311 13.4797 170.229 13.8967 170.229 14.3923V22.4075H166.314V14.3923C166.314 13.6655 166.161 13.108 165.855 12.7198C165.55 12.3234 165.108 12.1252 164.53 12.1252C163.969 12.1252 163.502 12.3193 163.13 12.7075C162.759 13.0873 162.573 13.6572 162.573 14.4171V22.4075H158.658Z" fill="#063231" fill-opacity="0.24"></path><path d="M149.078 22.6057C148.162 22.6057 147.328 22.4116 146.576 22.0235C145.824 21.627 145.226 21.0489 144.78 20.2891C144.342 19.521 144.123 18.5754 144.123 17.4522V9.07764H148.038V16.9318C148.038 17.6999 148.236 18.2863 148.632 18.691C149.037 19.0874 149.529 19.2856 150.107 19.2856C150.536 19.2856 150.912 19.1906 151.234 19.0007C151.564 18.8108 151.82 18.5424 152.002 18.1954C152.192 17.8403 152.287 17.4191 152.287 16.9318V9.07764H156.202V17.7371C156.202 18.2161 156.272 18.563 156.412 18.7777C156.553 18.9924 156.838 19.1783 157.267 19.3352L155.88 22.6057C154.897 22.3497 154.178 22.0152 153.724 21.6023C153.496 21.3942 153.322 21.1547 153.204 20.8838H153.105C152.759 21.2315 152.375 21.5412 151.953 21.8129C151.118 22.3414 150.16 22.6057 149.078 22.6057Z" fill="#063231" fill-opacity="0.24"></path><path fill-rule="evenodd" clip-rule="evenodd" d="M103.624 22.6057C102.343 22.6057 101.175 22.3126 100.118 21.7262C99.0687 21.1398 98.2307 20.3304 97.6027 19.2981C96.9834 18.2657 96.6741 17.0764 96.6741 15.7302C96.6741 14.384 96.9834 13.1947 97.6027 12.1623C98.2307 11.13 99.0687 10.3247 100.118 9.74659C101.175 9.16846 102.343 8.87939 103.624 8.87939C104.929 8.87939 106.105 9.16846 107.155 9.74659C108.203 10.3247 109.033 11.13 109.645 12.1623C110.264 13.1947 110.573 14.384 110.573 15.7302C110.573 17.0764 110.264 18.2657 109.645 19.2981C109.033 20.3304 108.199 21.1398 107.142 21.7262C106.093 22.3126 104.921 22.6057 103.624 22.6057ZM103.624 19.2609C104.235 19.2609 104.784 19.1123 105.271 18.8149C105.759 18.5176 106.143 18.1047 106.423 17.5761C106.704 17.0475 106.845 16.4322 106.845 15.7302C106.845 15.053 106.709 14.4501 106.436 13.9215C106.163 13.3929 105.787 12.98 105.309 12.6827C104.829 12.3771 104.276 12.2243 103.649 12.2243C103.029 12.2243 102.471 12.3729 101.976 12.6703C101.489 12.9593 101.105 13.3681 100.824 13.8967C100.543 14.4253 100.403 15.0365 100.403 15.7302C100.403 16.4322 100.543 17.0475 100.824 17.5761C101.113 18.1047 101.501 18.5176 101.989 18.8149C102.476 19.1123 103.021 19.2609 103.624 19.2609Z" fill="#063231" fill-opacity="0.24"></path><path fill-rule="evenodd" clip-rule="evenodd" d="M85.087 27.3997C86.0117 27.6722 87.0277 27.8085 88.1344 27.8085C89.167 27.8085 90.1124 27.6764 90.9717 27.4121C91.8304 27.1561 92.5737 26.7679 93.201 26.2476C93.837 25.7273 94.3284 25.0831 94.6757 24.315C95.0224 23.5469 95.1957 22.655 95.1957 21.6391V9.0649H91.6404V10.3656H91.5664C91.3297 10.1392 91.0737 9.9327 90.7977 9.74623C89.939 9.15983 88.9357 8.8667 87.7877 8.8667C86.7964 8.8667 85.8424 9.11857 84.9257 9.62237C84.009 10.1179 83.2577 10.8612 82.671 11.8523C82.093 12.8351 81.8037 14.0698 81.8037 15.5564C81.8037 16.6714 81.973 17.6418 82.3117 18.4677C82.6504 19.2936 83.1004 19.9832 83.6624 20.5366C84.2324 21.0816 84.8637 21.4904 85.5577 21.763C86.2517 22.0273 86.949 22.1594 87.651 22.1594C88.783 22.1594 89.7904 21.8497 90.6744 21.2303C90.9537 21.0317 91.215 20.8128 91.457 20.5737H91.5164V21.8621C91.5164 22.498 91.3104 23.0101 90.897 23.3982C90.4844 23.7947 89.9844 24.0838 89.3984 24.2654C88.8117 24.4472 88.2457 24.538 87.701 24.538C87.065 24.538 86.437 24.4348 85.8177 24.2283C85.2064 24.03 84.6697 23.7906 84.2077 23.5098L82.919 26.5821C83.4477 26.8629 84.1704 27.1354 85.087 27.3997ZM90.191 18.5296C89.737 18.827 89.2124 18.9756 88.6177 18.9756C88.031 18.9756 87.515 18.827 87.069 18.5296C86.623 18.224 86.2724 17.807 86.0164 17.2784C85.7604 16.7416 85.6317 16.1263 85.6317 15.4325C85.6317 14.7388 85.7604 14.1358 86.0164 13.6238C86.2804 13.1118 86.6437 12.7194 87.1064 12.4469C87.569 12.1661 88.093 12.0257 88.6797 12.0257C89.2657 12.0257 89.7824 12.162 90.2284 12.4345C90.6744 12.7071 91.025 13.0994 91.281 13.6114C91.537 14.1152 91.665 14.7222 91.665 15.4325C91.665 16.1345 91.533 16.754 91.269 17.2908C91.0044 17.8194 90.645 18.2323 90.191 18.5296Z" fill="#063231" fill-opacity="0.24"></path><path fill-rule="evenodd" clip-rule="evenodd" d="M73.8599 22.6057C72.5799 22.6057 71.4112 22.3126 70.3539 21.7262C69.3052 21.1398 68.4666 20.3304 67.8392 19.2981C67.2199 18.2657 66.9099 17.0764 66.9099 15.7302C66.9099 14.384 67.2199 13.1947 67.8392 12.1623C68.4666 11.13 69.3052 10.3247 70.3539 9.74659C71.4112 9.16846 72.5799 8.87939 73.8599 8.87939C75.1646 8.87939 76.3419 9.16846 77.3906 9.74659C78.4392 10.3247 79.2692 11.13 79.8806 12.1623C80.4999 13.1947 80.8099 14.384 80.8099 15.7302C80.8099 17.0764 80.4999 18.2657 79.8806 19.2981C79.2692 20.3304 78.4352 21.1398 77.3779 21.7262C76.3292 22.3126 75.1566 22.6057 73.8599 22.6057ZM73.8599 19.2609C74.4712 19.2609 75.0199 19.1123 75.5072 18.8149C75.9946 18.5176 76.3786 18.1047 76.6599 17.5761C76.9406 17.0475 77.0806 16.4322 77.0806 15.7302C77.0806 15.053 76.9446 14.4501 76.6719 13.9215C76.3992 13.3929 76.0239 12.98 75.5446 12.6827C75.0659 12.3771 74.5119 12.2243 73.8846 12.2243C73.2652 12.2243 72.7079 12.3729 72.2119 12.6703C71.7246 12.9593 71.3406 13.3681 71.0599 13.8967C70.7792 14.4253 70.6386 15.0365 70.6386 15.7302C70.6386 16.4322 70.7792 17.0475 71.0599 17.5761C71.3492 18.1047 71.7372 18.5176 72.2246 18.8149C72.7119 19.1123 73.2566 19.2609 73.8599 19.2609Z" fill="#063231" fill-opacity="0.24"></path><path d="M56.3271 4.14697V22.4074H66.969V18.79H60.3905V4.14697H56.3271Z" fill="#063231" fill-opacity="0.24"></path></g><defs><clipPath id="clip0_2068_2680"><rect width="178" height="28" fill="white" transform="translate(0 0.117676)"></rect></clipPath></defs></svg>