<svg xmlns="http://www.w3.org/2000/svg" width="176" height="45" viewBox="0 0 176 45" fill="none"><g clip-path="url(#clip0_2068_2696)"><path d="M17.6383 8.65246V3.12305H-0.261719V41.1134H17.6383V35.584C13.9715 35.584 10.4548 34.1652 7.862 31.6399C5.26917 29.1146 3.81254 25.6896 3.81254 22.1182C3.81254 18.5469 5.26917 15.1218 7.862 12.5965C10.4548 10.0712 13.9715 8.65246 17.6383 8.65246Z" fill="#063231" fill-opacity="0.24"></path><path d="M17.6387 8.65234V35.5838C21.3055 35.5838 24.8222 34.1651 27.415 31.6397C30.0078 29.1144 31.4644 25.6894 31.4644 22.1181C31.4644 18.5468 30.0078 15.1216 27.415 12.5964C24.8222 10.0711 21.3055 8.65234 17.6387 8.65234Z" fill="#063231" fill-opacity="0.24"></path><path d="M41.5098 12.0342H45.5172V30.8342H41.5098V12.0342Z" fill="#063231" fill-opacity="0.24"></path><path d="M47.7614 24.3948C47.7614 23.0422 48.1737 21.7201 48.9461 20.596C49.7185 19.4719 50.8161 18.5964 52.1 18.0806C53.3838 17.5648 54.7959 17.4319 56.1574 17.6986C57.5189 17.9653 58.7684 18.6197 59.7476 19.5788C60.7267 20.5381 61.3916 21.7587 61.6576 23.0863C61.9236 24.4139 61.7791 25.7884 61.2421 27.0359C60.7051 28.2832 59.8001 29.3473 58.6415 30.093C57.4829 30.8389 56.1231 31.2329 54.7344 31.2252C53.8133 31.2322 52.9 31.0601 52.0482 30.7187C51.1963 30.3774 50.4229 29.8739 49.7734 29.2379C49.1239 28.6017 48.6115 27.8455 48.2659 27.0139C47.9205 26.1823 47.7489 25.2918 47.7614 24.3948ZM57.8067 24.3948C57.791 23.8116 57.599 23.2459 57.2549 22.7686C56.9108 22.2911 56.4299 21.923 55.8721 21.7105C55.3144 21.4979 54.7047 21.4501 54.1193 21.5733C53.5339 21.6964 52.9987 21.9848 52.5807 22.4027C52.1628 22.8205 51.8805 23.349 51.7694 23.9222C51.6582 24.4955 51.723 25.0878 51.9557 25.6253C52.1884 26.1627 52.5786 26.6216 53.0777 26.9441C53.5766 27.2668 54.1621 27.4389 54.7611 27.4392C55.1689 27.447 55.5739 27.3727 55.9509 27.221C56.3279 27.0694 56.6686 26.8437 56.952 26.558C57.2353 26.2723 57.455 25.9326 57.5976 25.5605C57.7401 25.1883 57.8022 24.7914 57.78 24.3948H57.8067Z" fill="#063231" fill-opacity="0.24"></path><path d="M77.5632 17.9544V30.1972C77.5632 34.5166 74.0901 36.3511 70.5769 36.3511C69.3377 36.4501 68.0947 36.2103 66.9879 35.6587C65.8811 35.1071 64.9543 34.2654 64.3119 33.2286L67.6915 31.3291C67.9654 31.867 68.401 32.3106 68.9404 32.6011C69.4798 32.8916 70.0972 33.0152 70.7105 32.9554C71.1012 33.0022 71.4977 32.9645 71.8716 32.8448C72.2456 32.725 72.5877 32.5263 72.8736 32.2627C73.1596 31.9991 73.3821 31.6774 73.5255 31.3203C73.6688 30.9632 73.7293 30.5797 73.7027 30.1972V29.0133C73.2364 29.564 72.6446 30.0011 71.9746 30.2902C71.3044 30.5793 70.5744 30.7123 69.8422 30.6786C68.0708 30.6786 66.372 29.9932 65.1194 28.7732C63.8668 27.5534 63.1631 25.8987 63.1631 24.1734C63.1631 22.4481 63.8668 20.7936 65.1194 19.5736C66.372 18.3536 68.0708 17.6682 69.8422 17.6682C70.5744 17.6345 71.3044 17.7675 71.9746 18.0566C72.6446 18.3457 73.2364 18.7828 73.7027 19.3335V18.0325L77.5632 17.9544ZM73.7027 24.1344C73.7293 23.5119 73.5642 22.8959 73.2285 22.3656C72.8928 21.8353 72.402 21.4149 71.8189 21.1585C71.236 20.9021 70.5877 20.8214 69.9572 20.9268C69.3268 21.0322 68.7431 21.3188 68.2813 21.7498C67.8195 22.1809 67.5006 22.7367 67.3657 23.3457C67.2308 23.9547 67.286 24.5889 67.5241 25.1671C67.7625 25.7453 68.1728 26.2409 68.7025 26.5901C69.2323 26.9393 69.8572 27.1262 70.4967 27.1267C70.9142 27.156 71.3332 27.0997 71.7268 26.9615C72.1204 26.8232 72.48 26.6061 72.7821 26.324C73.0842 26.0421 73.3223 25.7015 73.4808 25.3243C73.6394 24.9471 73.715 24.5417 73.7027 24.1344Z" fill="#063231" fill-opacity="0.24"></path><path d="M79.8208 24.394C79.8208 23.0424 80.2325 21.7214 81.0036 20.5978C81.7748 19.4742 82.8709 18.5987 84.1531 18.0822C85.4354 17.5656 86.8461 17.4311 88.2069 17.6957C89.5677 17.9603 90.8173 18.6121 91.7976 19.5687C92.7778 20.5253 93.4447 21.7436 93.7137 23.0694C93.9829 24.3953 93.8421 25.769 93.3092 27.0168C92.7764 28.2648 91.8754 29.3306 90.7204 30.0796C89.5653 30.8286 88.2081 31.227 86.8205 31.2244C85.8977 31.2331 84.9823 31.0623 84.1281 30.7219C83.274 30.3816 82.4982 29.8786 81.8463 29.2424C81.1943 28.6062 80.6793 27.8496 80.3315 27.0171C79.9837 26.1846 79.8101 25.2927 79.8208 24.394ZM89.8661 24.394C89.8504 23.8103 89.658 23.2441 89.3134 22.7664C88.9687 22.2887 88.4869 21.9207 87.9284 21.7085C87.3699 21.4963 86.7596 21.4493 86.1738 21.5736C85.588 21.6977 85.0529 21.9876 84.6355 22.4066C84.218 22.8257 83.9368 23.3555 83.8273 23.9295C83.7176 24.5035 83.7843 25.0963 84.019 25.6334C84.2537 26.1708 84.646 26.6286 85.1468 26.9497C85.6475 27.2707 86.2343 27.4407 86.8338 27.4384C87.2417 27.4462 87.6467 27.3719 88.0237 27.2202C88.4006 27.0686 88.7414 26.8429 89.0247 26.5572C89.308 26.2715 89.5278 25.9318 89.6703 25.5597C89.8128 25.1875 89.875 24.7906 89.8528 24.394H89.8661Z" fill="#063231" fill-opacity="0.24"></path><path d="M95.6777 14.5063C95.6777 14.0483 95.8172 13.6005 96.0785 13.2197C96.3398 12.8388 96.7111 12.542 97.1455 12.3667C97.5801 12.1914 98.0582 12.1456 98.5194 12.2349C98.9805 12.3243 99.4043 12.5448 99.7369 12.8687C100.069 13.1926 100.296 13.6053 100.388 14.0544C100.479 14.5037 100.432 14.9693 100.252 15.3925C100.072 15.8156 99.7675 16.1773 99.3765 16.4318C98.9855 16.6863 98.5258 16.8221 98.0555 16.8221C97.427 16.8154 96.8263 16.5692 96.3818 16.1364C95.9374 15.7035 95.6847 15.1184 95.6777 14.5063ZM96.0651 17.954H100.073V30.8343H96.0651V17.954Z" fill="#063231" fill-opacity="0.24"></path><path d="M117.224 24.3951C117.269 25.2517 117.139 26.1085 116.843 26.9162C116.546 27.7239 116.089 28.4665 115.497 29.1013C114.904 29.7362 114.189 30.2507 113.392 30.6152C112.595 30.9798 111.732 31.1871 110.852 31.2255C110.105 31.2739 109.357 31.1575 108.663 30.8849C107.969 30.6122 107.348 30.1905 106.844 29.6513V36.0133H102.837V17.9549H106.844V19.1649C107.348 18.6272 107.97 18.2075 108.664 17.9371C109.358 17.6666 110.106 17.5527 110.852 17.6037C111.728 17.642 112.588 17.8482 113.382 18.2103C114.177 18.5724 114.89 19.0835 115.482 19.7141C116.074 20.3447 116.532 21.0826 116.831 21.8859C117.13 22.689 117.263 23.5416 117.224 24.3951ZM113.216 24.3951C113.2 23.7907 113.002 23.2045 112.645 22.7097C112.289 22.2149 111.791 21.8335 111.213 21.6135C110.634 21.3933 110.003 21.3444 109.396 21.4726C108.79 21.6007 108.235 21.9005 107.803 22.3341C107.371 22.7677 107.079 23.316 106.966 23.9103C106.852 24.5045 106.921 25.1182 107.164 25.6745C107.406 26.2307 107.812 26.7048 108.331 27.0374C108.849 27.3699 109.456 27.5459 110.077 27.5436C110.502 27.5612 110.926 27.491 111.322 27.3378C111.717 27.1845 112.075 26.9516 112.371 26.6543C112.667 26.357 112.896 26.002 113.042 25.6127C113.187 25.2233 113.247 24.8084 113.216 24.3951Z" fill="#063231" fill-opacity="0.24"></path><path d="M129.42 26.9698C129.42 29.9362 126.748 31.1982 123.916 31.1982C122.761 31.2994 121.601 31.0609 120.587 30.5136C119.573 29.9662 118.75 29.1351 118.226 28.1277L121.672 26.2282C121.809 26.6924 122.105 27.0969 122.511 27.3741C122.917 27.6512 123.408 27.784 123.903 27.7504C124.851 27.7504 125.332 27.4642 125.332 26.9438C125.332 25.5257 118.827 26.2803 118.827 21.8177C118.827 19.0075 121.258 17.6023 124.01 17.6023C125.056 17.5567 126.095 17.7879 127.017 18.2712C127.939 18.7545 128.709 19.4721 129.246 20.3475L125.8 22.1169C125.647 21.7813 125.399 21.4958 125.083 21.295C124.768 21.0941 124.4 20.9865 124.023 20.985C123.328 20.985 122.914 21.2453 122.914 21.7006C122.914 23.1838 129.42 22.208 129.42 26.9698Z" fill="#063231" fill-opacity="0.24"></path><path d="M143.94 17.9541V30.8344H139.933V29.6244C139.477 30.1601 138.899 30.5838 138.246 30.8618C137.591 31.1399 136.879 31.2641 136.166 31.2247C133.494 31.2247 131.21 29.3642 131.21 25.8904V17.9541H135.217V25.305C135.185 25.6123 135.223 25.9226 135.327 26.2145C135.431 26.5063 135.598 26.7728 135.817 26.9955C136.038 27.2181 136.305 27.3917 136.6 27.5042C136.895 27.6167 137.212 27.6653 137.528 27.6468C138.971 27.6468 139.986 26.8142 139.986 25.0448V17.9541H143.94Z" fill="#063231" fill-opacity="0.24"></path><path d="M166.649 22.9243V30.8346H162.641V23.2626C162.641 21.9616 162.013 21.1549 160.744 21.1549C159.475 21.1549 158.674 22.0526 158.674 23.5748V30.8346H154.666V23.2626C154.666 21.9616 154.038 21.1549 152.769 21.1549C151.5 21.1549 150.699 22.0526 150.699 23.5748V30.8346H146.691V17.9544H150.699V19.1383C151.114 18.6153 151.655 18.201 152.276 17.933C152.896 17.665 153.576 17.5516 154.252 17.6031C154.929 17.5686 155.605 17.7065 156.212 18.003C156.818 18.2995 157.335 18.7446 157.712 19.2944C158.153 18.7199 158.735 18.2635 159.406 17.9678C160.075 17.6719 160.812 17.5465 161.546 17.6031C164.672 17.6031 166.649 19.7108 166.649 22.9243Z" fill="#063231" fill-opacity="0.24"></path><path d="M170.015 17.8759C171.638 17.8759 172.954 16.5944 172.954 15.0137C172.954 13.4329 171.638 12.1514 170.015 12.1514C168.392 12.1514 167.076 13.4329 167.076 15.0137C167.076 16.5944 168.392 17.8759 170.015 17.8759Z" fill="#063231" fill-opacity="0.24"></path></g><defs><clipPath id="clip0_2068_2696"><rect width="176" height="44.2353" fill="white"></rect></clipPath></defs></svg>