<svg xmlns="http://www.w3.org/2000/svg" width="182" height="29" viewBox="0 0 182 29" fill="none"><g clip-path="url(#clip0_2068_2667)"><path d="M23.6067 25.7243C26.4198 22.9112 28.0002 19.0959 28.0002 15.1177C28.0002 11.1395 26.4198 7.3241 23.6067 4.51108C20.7937 1.69803 16.9784 0.117676 13.0001 0.117676C9.0219 0.117675 5.2066 1.69802 2.39355 4.51107L7.3433 9.46078C8.12436 10.2418 9.38562 10.2029 10.3793 9.72034C11.1885 9.32743 12.0835 9.11764 13.0001 9.11764C14.5915 9.11764 16.1176 9.74981 17.2428 10.8751C18.368 12.0002 19.0001 13.5264 19.0001 15.1177C19.0001 16.0343 18.7904 16.9294 18.3975 17.7386C17.915 18.7322 17.876 19.9935 18.657 20.7745L23.6067 25.7243Z" fill="#063231" fill-opacity="0.24"></path><path d="M21 28.1177H13.6569C12.596 28.1177 11.5786 27.6963 10.8284 26.9461L1.17158 17.2892C0.421428 16.5391 0 15.5217 0 14.4608V7.11768L21 28.1177Z" fill="#063231" fill-opacity="0.24"></path><path d="M7.50001 28.1177H3C1.34315 28.1177 0 26.7746 0 25.1177V20.6177L7.50001 28.1177Z" fill="#063231" fill-opacity="0.24"></path><path d="M170.896 4.96826C176.804 4.96826 181.613 9.77831 181.613 15.6863V23.2674H176.385V15.6863C176.385 13.5166 175.078 11.6344 173.248 10.7456V23.2674H168.02V15.6863C168.02 13.5166 166.712 11.6344 164.883 10.7456V23.2674H159.654V4.96826H162.53C164.516 4.96826 166.399 5.54337 168.02 6.51061V4.96826H170.896Z" fill="#063231" fill-opacity="0.24"></path><path d="M157.579 15.6863C157.579 19.8689 154.154 23.2674 149.997 23.2674C145.815 23.2674 142.416 19.8689 142.416 15.6863V4.96826H147.644V15.6863C147.644 16.9934 148.69 18.0391 149.997 18.0391C151.278 18.0391 152.35 16.9934 152.35 15.6863V4.96826H157.579V15.6863Z" fill="#063231" fill-opacity="0.24"></path><path d="M140.822 17.3856C140.822 20.6009 138.207 23.2151 134.992 23.2151H127.228V17.9868H134.992C135.306 17.9868 135.594 17.7253 135.594 17.3856C135.594 17.0718 135.306 16.8104 134.992 16.8104H132.875C129.607 16.8104 126.967 14.1701 126.967 10.9024C126.967 7.6347 129.607 4.96826 132.875 4.96826H140.56V10.1966H132.875C132.483 10.1966 132.195 10.5103 132.195 10.9024C132.195 11.2684 132.483 11.5821 132.875 11.5821H134.992C138.207 11.5821 140.822 14.1962 140.822 17.3856Z" fill="#063231" fill-opacity="0.24"></path><path d="M119.309 4.96826C122.969 4.96826 125.975 7.97455 125.975 11.6344C125.975 15.3203 122.969 18.3005 119.309 18.3005H117.348V23.2674H112.12V4.96826H119.309ZM119.309 13.0722C120.094 13.0722 120.747 12.4448 120.747 11.6344C120.747 10.8502 120.094 10.1966 119.309 10.1966H117.348V13.0722H119.309Z" fill="#063231" fill-opacity="0.24"></path><path d="M109.766 23.2674H104.538V4.96826H109.766V23.2674Z" fill="#063231" fill-opacity="0.24"></path><path d="M102.932 14.1178C102.932 19.1631 98.8015 23.2674 93.7825 23.2674C88.7369 23.2674 84.6328 19.1631 84.6328 14.1178C84.6328 9.09861 88.7369 4.96826 93.7825 4.96826C98.8015 4.96826 102.932 9.09861 102.932 14.1178ZM97.7039 14.1178C97.7039 11.9742 95.9259 10.1966 93.7825 10.1966C91.6125 10.1966 89.8611 11.9742 89.8611 14.1178C89.8611 16.2876 91.6125 18.0391 93.7825 18.0391C95.9259 18.0391 97.7039 16.2876 97.7039 14.1178Z" fill="#063231" fill-opacity="0.24"></path><path d="M83.112 12.9415V23.2674H76.5761C71.5312 23.2674 67.4268 19.1631 67.4268 14.1178C67.4268 9.09861 71.5312 4.96826 76.5761 4.96826H83.112V10.1966H76.5761C74.4068 10.1966 72.6554 11.9742 72.6554 14.1178C72.6554 16.2876 74.4068 18.0391 76.5761 18.0391H77.8837V12.9415H83.112Z" fill="#063231" fill-opacity="0.24"></path><path d="M66.5794 14.1178C66.5794 19.1631 62.449 23.2674 57.4298 23.2674C52.3844 23.2674 48.2803 19.1631 48.2803 14.1178C48.2803 9.09861 52.3844 4.96826 57.4298 4.96826C62.449 4.96826 66.5794 9.09861 66.5794 14.1178ZM61.351 14.1178C61.351 11.9742 59.5734 10.1966 57.4298 10.1966C55.26 10.1966 53.5086 11.9742 53.5086 14.1178C53.5086 16.2876 55.26 18.0391 57.4298 18.0391C59.5734 18.0391 61.351 16.2876 61.351 14.1178Z" fill="#063231" fill-opacity="0.24"></path><path d="M47.7411 18.0391V23.2674H41.2057C38.5916 23.2674 36.5002 21.1761 36.5002 18.5619V4.96826H41.7285V18.0391H47.7411Z" fill="#063231" fill-opacity="0.24"></path></g><defs><clipPath id="clip0_2068_2667"><rect width="182" height="28" fill="white" transform="translate(0 0.117676)"></rect></clipPath></defs></svg>