<svg xmlns="http://www.w3.org/2000/svg" width="154" height="29" viewBox="0 0 154 29" fill="none"><g clip-path="url(#clip0_2068_2693)"><path d="M14 28.1177C21.7322 28.1177 28 21.8499 28 14.1177V4.31768C28 3.20377 27.5576 2.13548 26.7699 1.34783C25.9822 0.560174 24.914 0.117676 23.8 0.117676L14.7 0.117676V6.25948C14.7 7.66088 14.7854 9.11268 15.5204 10.3055C16.0466 11.1603 16.7505 11.892 17.5844 12.4508C18.4182 13.0097 19.3626 13.3826 20.3532 13.5444L20.6213 13.5878C20.7319 13.6256 20.8278 13.697 20.8958 13.792C20.9637 13.887 21.0002 14.0009 21.0002 14.1177C21.0002 14.2345 20.9637 14.3484 20.8958 14.4434C20.8278 14.5384 20.7319 14.6098 20.6213 14.6476L20.3532 14.691C18.9058 14.9274 17.5691 15.6126 16.532 16.6497C15.4949 17.6867 14.8098 19.0234 14.5733 20.4709L14.5299 20.739C14.4922 20.8495 14.4208 20.9455 14.3258 21.0134C14.2307 21.0813 14.1169 21.1179 14 21.1179C13.8832 21.1179 13.7694 21.0813 13.6743 21.0134C13.5793 20.9455 13.5079 20.8495 13.4701 20.739L13.4267 20.4709C13.265 19.4802 12.892 18.5359 12.3331 17.7021C11.7743 16.8682 11.0427 16.1643 10.1878 15.6381C8.99505 14.9031 7.54325 14.8177 6.14185 14.8177H0.0168457C0.382946 22.2244 6.50305 28.1177 14 28.1177Z" fill="#063231" fill-opacity="0.24"></path><path d="M0 13.4177H6.1418C7.5432 13.4177 8.995 13.3323 10.1878 12.5973C11.1202 12.0228 11.9051 11.2379 12.4796 10.3055C13.2146 9.11268 13.3 7.66088 13.3 6.25948V0.117676H4.2C3.08609 0.117676 2.0178 0.560174 1.23015 1.34783C0.442499 2.13548 0 3.20377 0 4.31768L0 13.4177ZM32.5185 1.51768C32.5185 1.88898 32.371 2.24507 32.1084 2.50763C31.8459 2.77018 31.4898 2.91768 31.1185 2.91768C30.7472 2.91768 30.3911 2.77018 30.1285 2.50763C29.866 2.24507 29.7185 1.88898 29.7185 1.51768C29.7185 1.14637 29.866 0.790277 30.1285 0.527726C30.3911 0.265175 30.7472 0.117676 31.1185 0.117676C31.4898 0.117676 31.8459 0.265175 32.1084 0.527726C32.371 0.790277 32.5185 1.14637 32.5185 1.51768ZM148.198 8.59048C152.111 8.59048 154 11.324 154 14.4901V20.4366H149.904V15.1957C149.904 13.7607 149.381 12.5763 147.879 12.5763C146.378 12.5763 145.877 13.7607 145.877 15.1957V20.4359H141.781V15.1957C141.781 13.7607 141.281 12.5763 139.779 12.5763C138.277 12.5763 137.754 13.7607 137.754 15.1957V20.4359H133.659V14.4894C133.659 11.3233 135.547 8.58978 139.46 8.58978C141.6 8.58978 143.146 9.43258 143.852 10.8221C144.603 9.43258 146.241 8.58908 148.198 8.58908V8.59048ZM126.299 16.7917C127.618 16.7917 128.188 15.5842 128.188 14.1485V9.04548H132.283V14.6497C132.283 17.9985 130.326 20.7782 126.299 20.7782C122.271 20.7782 120.315 17.9992 120.315 14.6497V9.04548H124.41V14.1485C124.41 15.5835 124.979 16.7917 126.299 16.7917ZM114.292 20.8006C111.721 20.8006 110.06 19.9123 109.082 18.1812L112.04 16.518C112.449 17.2467 113.063 17.6114 114.087 17.6114C114.929 17.6114 115.316 17.3153 115.316 16.9506C115.316 15.5611 109.309 16.9737 109.309 12.5546C109.309 10.4126 111.129 8.68148 114.224 8.68148C116.931 8.68148 118.411 10.0024 119.071 11.2785L116.112 12.9641C115.863 12.2809 115.088 11.8707 114.315 11.8707C113.723 11.8707 113.405 12.1213 113.405 12.4629C113.405 13.8755 119.412 12.577 119.412 16.8596C119.412 19.2515 117.068 20.8006 114.292 20.8006ZM99.9831 25.6761H95.8874V14.7183C95.8874 11.2323 98.504 8.70388 102.145 8.70388C105.694 8.70388 108.402 11.415 108.402 14.7183C108.402 18.3632 105.99 20.7782 102.372 20.7782C101.53 20.7782 100.689 20.5276 99.9831 20.1398V25.6761ZM102.145 16.9282C103.442 16.9282 104.306 15.9258 104.306 14.7407C104.306 13.5339 103.442 12.5539 102.145 12.5539C100.848 12.5539 99.9831 13.5339 99.9831 14.7414C99.9831 15.9258 100.848 16.9282 102.145 16.9282ZM91.7847 7.83868C90.4421 7.83868 89.3277 6.72218 89.3277 5.37818C89.3277 4.03418 90.4421 2.91768 91.7847 2.91768C93.1273 2.91768 94.2424 4.03418 94.2424 5.37818C94.2424 6.72218 93.1273 7.83868 91.7847 7.83868ZM89.7372 9.04548H93.8329V20.4366H89.7372V9.04548ZM81.879 20.7782C78.3293 20.7782 75.6217 18.0447 75.6217 14.7183C75.6217 11.415 78.3293 8.68148 81.879 8.68148C85.4287 8.68148 88.1363 11.415 88.1363 14.7183C88.1363 18.0447 85.4287 20.7782 81.879 20.7782ZM81.879 16.9282C83.1761 16.9282 84.0406 15.9258 84.0406 14.7407C84.0406 13.5339 83.1761 12.5315 81.879 12.5315C80.5819 12.5315 79.7174 13.5339 79.7174 14.7407C79.7174 15.9258 80.5819 16.9282 81.879 16.9282ZM67.8881 26.0177C65.0671 26.0177 63.0189 24.7647 61.9724 22.5317L65.3625 20.7096C65.7265 21.4845 66.409 22.2818 67.8195 22.2818C69.2993 22.2818 70.2772 21.3473 70.3913 19.7072C69.8453 20.186 68.9801 20.55 67.6837 20.55C64.5204 20.55 61.9717 18.1126 61.9717 14.6952C61.9717 11.3926 64.68 8.70388 68.2297 8.70388C71.8704 8.70388 74.487 11.233 74.487 14.7183V19.2291C74.487 23.3297 71.6422 26.0177 67.8881 26.0177ZM68.1611 16.7007C69.3896 16.7007 70.3227 15.8572 70.3227 14.6042C70.3227 13.3743 69.3903 12.5539 68.1611 12.5539C66.955 12.5539 65.9995 13.3743 65.9995 14.6049C65.9995 15.8579 66.955 16.7 68.1611 16.7V16.7007ZM55.0249 20.7782C51.4752 20.7782 48.7669 18.0447 48.7669 14.7183C48.7669 11.415 51.4752 8.68148 55.0249 8.68148C58.5739 8.68148 61.2822 11.415 61.2822 14.7183C61.2822 18.0447 58.5746 20.7782 55.0249 20.7782ZM55.0249 16.9282C56.322 16.9282 57.1865 15.9258 57.1865 14.7407C57.1865 13.5339 56.322 12.5315 55.0249 12.5315C53.7278 12.5315 52.8633 13.5339 52.8633 14.7407C52.8633 15.9258 53.7278 16.9282 55.0249 16.9282ZM41.3091 5.05968V16.5635H48.09V20.4366H40.74C38.1465 20.4366 37.1 19.0695 37.1 16.9051V5.05968H41.3091Z" fill="#063231" fill-opacity="0.24"></path></g><defs><clipPath id="clip0_2068_2693"><rect width="154" height="28" fill="white" transform="translate(0 0.117676)"></rect></clipPath></defs></svg>