<svg xmlns="http://www.w3.org/2000/svg" width="171" height="45" viewBox="0 0 171 45" fill="none"><g clip-path="url(#clip0_2068_2709)"><path d="M48.2041 13.6092H52.4321V31.0131H48.2041V13.6092ZM54.1092 24.4418C54.1092 20.1375 56.7024 17.5692 60.705 17.5692C64.7075 17.5692 67.3007 20.1375 67.3007 24.4418C67.3007 28.7462 64.7639 31.3288 60.705 31.3288C56.6461 31.3288 54.1092 28.8179 54.1092 24.4418ZM63.0586 24.4418C63.0586 22.0744 62.1425 20.6827 60.705 20.6827C59.2674 20.6827 58.3655 22.1175 58.3655 24.4418C58.3655 26.7662 59.2533 28.1722 60.705 28.1722C62.1566 28.1722 63.0586 26.8522 63.0586 24.4562V24.4418ZM68.8932 31.8596H72.9521C73.1453 32.2965 73.4719 32.6582 73.8833 32.891C74.2947 33.1235 74.7689 33.2148 75.2353 33.1509C76.8419 33.1509 77.6875 32.2614 77.6875 30.9701V28.5596H77.6029C77.2661 29.2984 76.7194 29.9174 76.0336 30.3369C75.3479 30.7563 74.5543 30.9569 73.7554 30.9127C70.669 30.9127 68.6254 28.5166 68.6254 24.3988C68.6254 20.2809 70.5703 17.684 73.8118 17.684C74.6357 17.6511 75.4498 17.8754 76.145 18.3266C76.8402 18.778 77.3834 19.4348 77.7016 20.2092V17.8131H81.9296V30.8696C81.9296 34.0118 79.2096 35.9631 75.193 35.9631C71.4582 35.9631 69.1328 34.2557 68.8932 31.874V31.8596ZM77.7016 24.4275C77.7016 22.3327 76.7573 21.0127 75.2634 21.0127C73.7695 21.0127 72.8535 22.3183 72.8535 24.4275C72.8535 26.5366 73.7554 27.7275 75.2634 27.7275C76.7714 27.7275 77.7016 26.5653 77.7016 24.4418V24.4275ZM83.5222 24.4275C83.5222 20.1231 86.1154 17.5548 90.1179 17.5548C94.1204 17.5548 96.7277 20.1231 96.7277 24.4275C96.7277 28.7318 94.1909 31.3144 90.1179 31.3144C86.0449 31.3144 83.5222 28.8179 83.5222 24.4418V24.4275ZM92.4715 24.4275C92.4715 22.0601 91.5554 20.6683 90.1179 20.6683C88.6804 20.6683 87.8489 22.1175 87.8489 24.4562C87.8489 26.7948 88.7367 28.1866 90.1743 28.1866C91.6118 28.1866 92.4715 26.8522 92.4715 24.4562V24.4275ZM98.3343 14.6853C98.3232 14.2507 98.4392 13.8225 98.6674 13.4551C98.8957 13.0877 99.2259 12.7975 99.6163 12.6214C100.007 12.4452 100.44 12.3911 100.86 12.4657C101.281 12.5404 101.67 12.7406 101.979 13.0409C102.288 13.3411 102.502 13.728 102.595 14.1524C102.688 14.5768 102.654 15.0196 102.499 15.4248C102.344 15.8298 102.075 16.179 101.725 16.428C101.375 16.6769 100.96 16.8145 100.533 16.8231C100.25 16.8429 99.9659 16.8029 99.6989 16.7056C99.4317 16.6083 99.1873 16.4559 98.9808 16.2578C98.7743 16.0598 98.6103 15.8203 98.4991 15.5546C98.3878 15.289 98.3317 15.0028 98.3343 14.714V14.6853ZM98.3343 17.8418H102.562V31.0131H98.3343V17.8418ZM117.91 24.4275C117.91 28.7318 116.036 31.1853 112.822 31.1853C111.998 31.2391 111.178 31.0341 110.472 30.5979C109.766 30.1616 109.209 29.5152 108.876 28.7462H108.792V35.2314H104.564V17.8131H108.792V20.1662H108.876C109.194 19.3843 109.74 18.7212 110.441 18.2668C111.142 17.8124 111.964 17.5888 112.794 17.6266C116.036 17.684 117.966 20.1518 117.966 24.4562L117.91 24.4275ZM113.682 24.4275C113.682 22.3327 112.738 20.9983 111.258 20.9983C109.778 20.9983 108.834 22.347 108.82 24.4275C108.806 26.5079 109.778 27.8422 111.258 27.8422C112.738 27.8422 113.682 26.5366 113.682 24.4562V24.4275ZM125.168 17.5405C128.677 17.5405 130.806 19.2335 130.904 21.9453H127.057C127.057 21.0127 126.296 20.4244 125.126 20.4244C123.956 20.4244 123.435 20.8835 123.435 21.5579C123.435 22.2322 123.9 22.4475 124.844 22.6483L127.55 23.2079C130.129 23.7675 131.228 24.8292 131.228 26.8235C131.228 29.5496 128.79 31.3001 125.196 31.3001C121.603 31.3001 119.249 29.5496 119.066 26.8666H123.139C123.266 27.8422 124.027 28.4162 125.267 28.4162C126.507 28.4162 127.071 28.0001 127.071 27.3114C127.071 26.6227 126.676 26.4792 125.661 26.264L123.223 25.7331C120.701 25.2022 119.376 23.8392 119.376 21.8305C119.404 19.2479 121.673 17.5692 125.168 17.5692V17.5405ZM145.336 30.9844H141.263V28.5309H141.178C140.954 29.3546 140.461 30.0756 139.779 30.5742C139.097 31.0727 138.268 31.3187 137.429 31.2714C136.787 31.3085 136.144 31.2049 135.545 30.9675C134.945 30.73 134.402 30.3644 133.954 29.8951C133.505 29.426 133.16 28.8639 132.943 28.2474C132.725 27.6309 132.641 26.9741 132.694 26.3214V17.8131H136.922V25.3314C136.922 26.8953 137.711 27.7275 139.022 27.7275C139.329 27.728 139.634 27.6619 139.914 27.5332C140.193 27.4045 140.444 27.2162 140.647 26.9812C140.849 26.7461 141.001 26.4696 141.09 26.1703C141.178 25.8708 141.205 25.5555 141.164 25.2453V17.8131H145.392L145.336 30.9844ZM147.379 17.8131H151.466V20.3527H151.551C151.775 19.5399 152.259 18.8256 152.924 18.322C153.589 17.8184 154.401 17.5536 155.229 17.5692C156.074 17.5005 156.911 17.7574 157.577 18.2892C158.243 18.8209 158.688 19.5882 158.823 20.4388H158.908C159.163 19.5792 159.693 18.8308 160.413 18.3113C161.132 17.7917 162.001 17.5306 162.882 17.5692C163.457 17.5495 164.029 17.6533 164.562 17.8737C165.096 18.0939 165.577 18.426 165.976 18.8482C166.374 19.2704 166.682 19.7733 166.878 20.3241C167.072 20.8749 167.152 21.4616 167.11 22.0457V31.0131H162.882V23.1935C162.882 21.7588 162.248 21.0988 161.064 21.0988C160.801 21.0965 160.538 21.1518 160.297 21.2612C160.056 21.3705 159.841 21.5312 159.666 21.7325C159.491 21.9338 159.36 22.1708 159.283 22.4278C159.205 22.6849 159.184 22.9558 159.218 23.2222V31.0131H155.201V23.1362C155.201 21.8161 154.567 21.0988 153.411 21.0988C153.145 21.0989 152.88 21.1566 152.638 21.2681C152.394 21.3797 152.175 21.5425 151.999 21.7458C151.822 21.9492 151.689 22.1885 151.609 22.448C151.53 22.7074 151.505 22.9811 151.537 23.2509V31.0131H147.309L147.379 17.8131Z" fill="#063231" fill-opacity="0.24"></path><path d="M36.38 14.3986C35.6628 12.729 34.7136 11.1731 33.5613 9.77856C31.8581 7.65557 29.7326 5.92386 27.3246 4.69742C24.9166 3.471 22.2807 2.77764 19.5905 2.66299C16.9004 2.54833 14.2169 3.01498 11.7166 4.03224C9.21634 5.04949 6.95604 6.59428 5.08448 8.56492C3.2129 10.5356 1.77248 12.8874 0.858034 15.4656C-0.0564164 18.0438 -0.424184 20.7899 -0.221042 23.5232C-0.0178851 26.2566 0.751544 28.9151 2.03664 31.3238C3.32173 33.7327 5.09334 35.8371 7.23486 37.4986C8.60897 38.586 10.1273 39.47 11.7447 40.1242C14.0124 41.0703 16.4394 41.5576 18.8901 41.559C23.9488 41.5477 28.7966 39.4948 32.3711 35.8504C35.9455 32.2061 37.9548 27.2677 37.9585 22.1177C37.9621 19.4612 37.4248 16.8328 36.38 14.3986ZM18.876 6.60768C21.0768 6.60745 23.251 7.09714 25.2462 8.04246C24.7597 8.25649 24.2481 8.40598 23.7241 8.48726C21.9999 8.74134 20.4027 9.55627 19.1708 10.8104C17.9389 12.0645 17.1384 13.6906 16.8888 15.446C16.7793 16.4304 16.3395 17.3462 15.6437 18.0389C14.9479 18.7316 14.0387 19.1586 13.0695 19.2481C11.3453 19.5022 9.74808 20.3172 8.51619 21.5713C7.2843 22.8255 6.48381 24.4515 6.23423 26.2068C6.14973 27.1429 5.75744 28.0225 5.12085 28.7033C4.02248 26.3407 3.52907 23.7334 3.68652 21.1244C3.84398 18.5154 4.64717 15.9893 6.02138 13.7812C7.39557 11.5732 9.29612 9.7549 11.5462 8.49564C13.7962 7.23637 16.3226 6.57704 18.8901 6.57898L18.876 6.60768ZM7.22077 32.1612C7.38989 32.0033 7.55901 31.8599 7.72813 31.6877C8.98195 30.4502 9.78677 28.8166 10.0113 27.0533C10.1023 26.0622 10.5369 25.1365 11.2374 24.442C11.9115 23.7278 12.8187 23.2889 13.7883 23.2081C15.5125 22.954 17.1097 22.1391 18.3416 20.8849C19.5735 19.6308 20.374 18.0047 20.6236 16.2494C20.6846 15.2128 21.1215 14.2361 21.8497 13.509C22.5404 12.8086 23.4562 12.3857 24.4288 12.3181C26.0128 12.0963 27.49 11.3794 28.6568 10.2664C29.9854 11.3885 31.1109 12.7384 31.9829 14.2551C31.9293 14.3287 31.8679 14.3961 31.7997 14.456C31.127 15.1765 30.2209 15.625 29.2487 15.7186C27.5227 15.9682 25.9231 16.7817 24.6904 18.0366C23.4578 19.2916 22.6587 20.9201 22.4134 22.6773C22.3141 23.665 21.8824 24.5874 21.1915 25.2881C20.5005 25.989 19.5929 26.4251 18.6223 26.5225C16.8931 26.7746 15.2899 27.5879 14.0508 28.8415C12.8119 30.0952 12.0031 31.7223 11.7447 33.4812C11.6689 34.1824 11.4323 34.8557 11.0542 35.4468C9.60818 34.5728 8.31314 33.4628 7.22077 32.1612ZM18.876 37.6994C17.4459 37.701 16.0227 37.4981 14.648 37.0968C15.1183 36.2044 15.424 35.2318 15.55 34.2273C15.6488 33.2417 16.0785 32.321 16.7665 31.6205C17.4545 30.9201 18.3589 30.4826 19.327 30.382C21.0537 30.1308 22.6542 29.3171 23.8889 28.0627C25.1235 26.8084 25.9261 25.1807 26.1764 23.4233C26.2752 22.4378 26.7049 21.5171 27.3929 20.8166C28.081 20.1162 28.9853 19.6787 29.9534 19.5781C31.2528 19.4061 32.4914 18.9135 33.5613 18.1433C34.1555 20.436 34.2258 22.8367 33.7671 25.1613C33.3084 27.4859 32.3325 29.6728 30.9147 31.554C29.4969 33.435 27.6748 34.9606 25.5878 36.0134C23.501 37.0663 21.2051 37.6185 18.876 37.6277V37.6994Z" fill="#063231" fill-opacity="0.24"></path></g><defs><clipPath id="clip0_2068_2709"><rect width="171" height="44" fill="white" transform="translate(0 0.117676)"></rect></clipPath></defs></svg>